<svg width="514" height="490" viewBox="0 0 514 490" fill="none" xmlns="http://www.w3.org/2000/svg">
<path d="M301.484 465C412.761 465 502.968 375.009 502.968 264C502.968 222.926 490.619 184.73 469.422 152.905L511.382 112.184C514.806 108.861 514.881 103.4 511.551 99.9849L488.244 76.0847C484.914 72.6697 479.439 72.5944 476.016 75.9166L436.213 114.545C400.519 82.5007 353.284 63 301.484 63C190.208 63 100 152.991 100 264C100 375.009 190.208 465 301.484 465Z" fill="black" fill-opacity="0.4"/>
<ellipse cx="250" cy="242.5" rx="194" ry="193.5" fill="#B47950"/>
<path d="M236.583 40L309.946 53.7682C309.946 53.7682 348.096 114.463 335.42 152.112C313.339 217.693 216.263 114.878 191.751 179.649C175.086 223.683 211.051 236.939 191.751 279.96C167.623 333.738 54.639 303.562 54.639 303.562L46 254.467V205.372L76.6116 136.377L108.198 96.0561L162.202 59.6688L236.583 40Z" fill="#6F4E37"/>
<ellipse cx="250.861" cy="131.674" rx="24.1418" ry="10.3465" fill="#B47950"/>
<circle cx="191.369" cy="89.4258" r="4.31104" fill="#B47950"/>
<circle cx="116.357" cy="228.241" r="5.17325" fill="#B47950"/>
<ellipse cx="140.498" cy="296.356" rx="3.44883" ry="2.58662" fill="#B47950"/>
<ellipse cx="419.446" cy="194.085" rx="4.31104" ry="24.1418" transform="rotate(-13.7833 419.446 194.085)" fill="#6F4E37"/>
<path d="M429.055 225.695C434.524 228.218 436.063 273.815 414.119 321.377C392.174 368.939 349.184 393.088 343.716 390.565C338.247 388.041 376.331 361.629 398.275 314.067C420.22 266.505 423.586 223.172 429.055 225.695Z" fill="#6F4E37"/>
<ellipse cx="239.652" cy="197.202" rx="11.2087" ry="5.17325" fill="#6F4E37"/>
<ellipse cx="409.507" cy="161.851" rx="1.72442" ry="4.31104" fill="#6F4E37"/>
<ellipse cx="172.4" cy="348.088" rx="2.58662" ry="4.31104" fill="#6F4E37"/>
<ellipse cx="269.829" cy="357.572" rx="5.17325" ry="6.89766" fill="#6F4E37"/>
<path d="M196.498 423C152.254 388.821 123.784 335.404 123.784 275.374C123.784 172.195 207.89 88.5521 311.641 88.5521C330.177 88.5521 348.086 91.2219 365 96.1959C333.198 71.6282 293.245 57 249.857 57C146.106 57 62 140.643 62 243.822C62 328.567 118.738 400.133 196.498 423Z" fill="black" fill-opacity="0.3"/>
<path d="M430.976 43.1548C434.341 39.8814 439.722 39.9556 442.996 43.3204L464.312 65.2327C467.586 68.5976 467.512 73.979 464.147 77.2524L420.939 119.286L387.768 85.1881L430.976 43.1548Z" fill="#EDEDED" stroke="black" stroke-width="3"/>
<path d="M456.251 54.7953L465.388 64.1868C469.239 68.1455 469.151 74.4765 465.193 78.3276L420.91 121.407L404.801 104.847L456.251 54.7953Z" fill="black" fill-opacity="0.3"/>
<ellipse cx="423.862" cy="69.2259" rx="16.3819" ry="5.7433" transform="rotate(-41.4606 423.862 69.2259)" fill="white"/>
<path d="M464.913 243.761C464.913 361.979 369.079 457.813 250.861 457.813C132.643 457.813 36.8091 361.979 36.8091 243.761C36.8091 125.543 132.643 29.709 250.861 29.709C369.079 29.709 464.913 125.543 464.913 243.761ZM249.999 431.498C353.207 431.498 436.873 347.831 436.873 244.623C436.873 141.415 353.207 57.7485 249.999 57.7485C146.791 57.7485 63.1241 141.415 63.1241 244.623C63.1241 347.831 146.791 431.498 249.999 431.498Z" fill="#EDEDED" stroke="black" stroke-width="3"/>
<path d="M418.991 369.643C363.969 442.66 278.019 452.114 271.554 447.242C265.089 442.37 349.311 434.038 404.334 361.021C459.357 288.004 442.677 196.4 449.143 201.272C455.608 206.143 474.014 296.627 418.991 369.643Z" fill="black" fill-opacity="0.3"/>
<path d="M87.9037 115.292C142.927 42.2752 226.15 38.7076 232.615 43.5794C239.08 48.4512 154.998 50.0351 99.9746 123.052C44.9517 196.069 52.843 271.763 46.3779 266.891C39.9129 262.019 32.8808 188.309 87.9037 115.292Z" fill="white"/>
</svg>
