<svg width="202" height="261" viewBox="0 0 202 261" fill="none" xmlns="http://www.w3.org/2000/svg">
<g filter="url(#filter0_d_1_23)">
<path d="M45.66 16.4831C48.4213 9.79525 49.8019 6.45131 52.6559 4.683C55.5098 2.91469 59.1187 3.16705 66.3366 3.67178L140.173 8.8349C147.391 9.33963 151 9.59199 153.58 11.7403C156.16 13.8886 157.062 17.3921 158.865 24.3992L163.326 41.7301L38.8303 33.0245L45.66 16.4831Z" fill="#F2EDF2"/>
<path opacity="0.5" d="M66.9433 3.71421L92.88 5.52788L80.3289 35.9264L54.3923 34.1127L66.9433 3.71421Z" fill="white"/>
<g opacity="0.06">
<path d="M142.577 40.2792L163.326 41.7301L158.865 24.3992C157.061 17.3921 156.16 13.8886 153.58 11.7403C151 9.59198 147.391 9.33962 140.173 8.8349L134.379 8.42974L142.577 40.2792Z" fill="black" style="mix-blend-mode:soft-light"/>
</g>
<rect x="23.2683" y="31.9363" width="156" height="20.8" rx="5.2" transform="rotate(4 23.2683 31.9363)" fill="#F2EDF2"/>
<path opacity="0.5" d="M44.0176 33.3873L69.9543 35.2009L68.5034 55.9503L42.5667 54.1366L44.0176 33.3873Z" fill="white"/>
<g opacity="0.06">
<path d="M158.139 41.3674L168.514 42.0929C173.404 42.4349 175.85 42.6059 177.263 44.2314C177.263 44.2314 177.263 44.2314 177.263 44.2314C178.676 45.857 178.505 48.3023 178.163 53.193C177.821 58.0837 177.65 60.529 176.024 61.9421C176.024 61.9421 176.024 61.9421 176.024 61.9421C174.399 63.3552 171.953 63.1842 167.063 62.8422L156.688 62.1167L158.139 41.3674Z" fill="black" style="mix-blend-mode:soft-light"/>
</g>
<path d="M37.3793 53.7739L161.875 62.4795L138.606 198.457C137.097 207.275 136.343 211.684 133.191 214.159C130.04 216.634 125.578 216.322 116.653 215.698L60.8372 211.795C51.9129 211.171 47.4508 210.859 44.6744 207.969C41.898 205.08 41.7644 200.609 41.4974 191.667L37.3793 53.7739Z" fill="#E3DFE3"/>
<path opacity="0.5" d="M52.9413 54.8621L78.878 56.6757L83.558 213.384L57.6213 211.57L52.9413 54.8621Z" fill="white"/>
<g opacity="0.06">
<path d="M161.875 62.4795L141.126 61.0285L114.682 215.56L116.653 215.698C125.578 216.322 130.04 216.634 133.191 214.159C136.343 211.684 137.097 207.275 138.606 198.457L161.875 62.4795Z" fill="black" style="mix-blend-mode:soft-light"/>
</g>
<g opacity="0.06">
<path fill-rule="evenodd" clip-rule="evenodd" d="M161.875 62.4795L37.3793 53.7739L37.5353 58.9975L160.994 67.6305L161.875 62.4795ZM117.248 215.74L60.2422 211.754C60.4383 211.767 60.6366 211.781 60.8372 211.795L116.653 215.698C116.854 215.712 117.052 215.726 117.248 215.74Z" fill="black" style="mix-blend-mode:soft-light"/>
</g>
<path fill-rule="evenodd" clip-rule="evenodd" d="M40.8114 168.693L40.4994 158.246L144.246 165.501L142.483 175.803L40.8114 168.693Z" fill="#D27F55" fill-opacity="0.3"/>
<path fill-rule="evenodd" clip-rule="evenodd" d="M166.001 62.768L33.254 53.4854C33.254 53.4854 33.254 53.4854 33.254 53.4854C33.254 53.4854 33.254 53.4854 33.254 53.4854L166.001 62.768ZM161.463 89.5354C162.359 84.2495 162.807 81.6066 161.382 79.795C159.957 77.9835 157.283 77.7965 151.935 77.4225L45.1434 69.9549C39.7952 69.5809 37.1211 69.3939 35.4579 70.9896C33.7946 72.5852 33.8704 75.2647 34.0221 80.6238L36.0917 153.746C36.2185 158.224 36.2818 160.463 37.6705 161.91C39.0592 163.358 41.2935 163.514 45.7621 163.827L138.258 170.295C142.726 170.607 144.961 170.763 146.537 169.523C148.114 168.283 148.488 166.075 149.237 161.658L161.463 89.5354Z" fill="#E59A61"/>
<g opacity="0.4">
<path fill-rule="evenodd" clip-rule="evenodd" d="M43.0347 69.8074L68.9714 71.6211L71.7793 165.646L45.8427 163.832L43.0347 69.8074Z" fill="white" style="mix-blend-mode:soft-light"/>
</g>
<path style="mix-blend-mode:soft-light" fill-rule="evenodd" clip-rule="evenodd" d="M161.382 79.795C162.807 81.6066 162.359 84.2495 161.463 89.5353L149.237 161.658C148.488 166.075 148.114 168.283 146.537 169.523C144.961 170.763 142.726 170.607 138.258 170.295L138.177 170.289L154.043 77.5747C158.013 77.8815 160.158 78.239 161.382 79.795Z" fill="black" fill-opacity="0.4"/>
<path fill-rule="evenodd" clip-rule="evenodd" d="M76.1575 95.5807C74.725 95.4805 73.4826 96.5606 73.3824 97.993L70.4806 139.492C70.3804 140.924 71.4604 142.167 72.8929 142.267C74.3253 142.367 75.5677 141.287 75.6679 139.854L78.5698 98.3557C78.6699 96.9233 77.5899 95.6809 76.1575 95.5807ZM63.0078 97.2675C63.108 95.8351 64.3504 94.7551 65.7829 94.8553C67.2153 94.9554 68.2953 96.1978 68.1952 97.6303L65.2933 139.129C65.1931 140.561 63.9507 141.641 62.5183 141.541C61.0858 141.441 60.0058 140.199 60.106 138.766L63.0078 97.2675ZM52.6331 96.5421C52.7333 95.1096 53.9757 94.0296 55.4082 94.1298C56.8406 94.23 57.9206 95.4724 57.8205 96.9048L54.9186 138.403C54.8184 139.836 53.576 140.916 52.1436 140.816C50.7111 140.716 49.6311 139.473 49.7313 138.041L52.6331 96.5421ZM83.7571 98.7185C83.8573 97.2861 85.0997 96.206 86.5322 96.3062C87.9646 96.4064 89.0446 97.6488 88.9445 99.0812L86.0426 140.58C85.9424 142.012 84.7 143.092 83.2676 142.992C81.8351 142.892 80.7551 141.65 80.8553 140.217L83.7571 98.7185ZM96.9069 97.0317C95.4744 96.9315 94.232 98.0115 94.1318 99.444L91.23 140.943C91.1298 142.375 92.2098 143.618 93.6423 143.718C95.0747 143.818 96.3171 142.738 96.4173 141.305L99.3192 99.8067C99.4193 98.3743 98.3393 97.1318 96.9069 97.0317ZM104.507 100.169C104.607 98.737 105.849 97.657 107.282 97.7571C108.714 97.8573 109.794 99.0997 109.694 100.532L106.792 142.031C106.692 143.463 105.449 144.543 104.017 144.443C102.585 144.343 101.504 143.101 101.605 141.668L104.507 100.169ZM117.656 98.4826C116.224 98.3824 114.981 99.4624 114.881 100.895L111.979 142.394C111.879 143.826 112.959 145.068 114.392 145.169C115.824 145.269 117.066 144.189 117.167 142.756L120.068 101.258C120.169 99.8252 119.089 98.5827 117.656 98.4826ZM125.256 101.62C125.356 100.188 126.598 99.1079 128.031 99.2081C129.463 99.3082 130.543 100.551 130.443 101.983L127.541 143.482C127.441 144.914 126.199 145.994 124.766 145.894C123.334 145.794 122.254 144.551 122.354 143.119L125.256 101.62ZM138.406 99.9335C136.973 99.8334 135.731 100.913 135.63 102.346L132.729 143.845C132.628 145.277 133.708 146.519 135.141 146.62C136.573 146.72 137.816 145.64 137.916 144.207L140.818 102.709C140.918 101.276 139.838 100.034 138.406 99.9335Z" fill="#AB604B" style="mix-blend-mode:darken"/>
</g>
<defs>
<filter id="filter0_d_1_23" x="-9.86466" y="0.812332" width="211.729" height="259.975" filterUnits="userSpaceOnUse" color-interpolation-filters="sRGB">
<feFlood flood-opacity="0" result="BackgroundImageFix"/>
<feColorMatrix in="SourceAlpha" type="matrix" values="0 0 0 0 0 0 0 0 0 0 0 0 0 0 0 0 0 0 127 0" result="hardAlpha"/>
<feOffset dy="20.8"/>
<feGaussianBlur stdDeviation="10.4"/>
<feColorMatrix type="matrix" values="0 0 0 0 0 0 0 0 0 0 0 0 0 0 0 0 0 0 0.12 0"/>
<feBlend mode="darken" in2="BackgroundImageFix" result="effect1_dropShadow_1_23"/>
<feBlend mode="normal" in="SourceGraphic" in2="effect1_dropShadow_1_23" result="shape"/>
</filter>
</defs>
</svg>
